<?xml version="1.0" encoding="UTF-8"?>
<svg version="1.1" xmlns="http://www.w3.org/2000/svg" width="1024" height="373">
<path d="M0 0 C1.72338867 0.99975586 1.72338867 0.99975586 3.41796875 2.21484375 C4.03220703 2.65376953 4.64644531 3.09269531 5.27929688 3.54492188 C5.90900391 4.00447266 6.53871094 4.46402344 7.1875 4.9375 C8.14946289 5.62102539 8.14946289 5.62102539 9.13085938 6.31835938 C13.86714234 9.73428468 13.86714234 9.73428468 15 12 C13.54980469 12.72703125 13.54980469 12.72703125 12.0703125 13.46875 C3.97507843 17.60598986 -3.10641516 22.00778629 -10 28 C-10.58652344 28.4434375 -11.17304688 28.886875 -11.77734375 29.34375 C-30.6515475 43.9101943 -40.77108269 69.00241966 -44.46484375 91.87890625 C-44.73670387 94.25861333 -44.90527463 96.60715482 -45 99 C-45.03996094 99.75925781 -45.07992187 100.51851563 -45.12109375 101.30078125 C-45.8499493 127.49670708 -35.77097494 151.32092672 -19 171 C-18.44054687 171.66128906 -17.88109375 172.32257813 -17.3046875 173.00390625 C-4.6145149 186.74627909 14.09285264 195.58708431 32 200 C33.35158203 200.33644531 33.35158203 200.33644531 34.73046875 200.6796875 C61.04298642 206.09806208 89.3047592 199.84079465 111.68359375 185.3359375 C116.54183032 182.01518827 120.82871266 178.13876269 125 174 C125.886875 173.154375 126.77375 172.30875 127.6875 171.4375 C128.8321875 170.2309375 128.8321875 170.2309375 130 169 C130.51820313 168.46503906 131.03640625 167.93007812 131.5703125 167.37890625 C150.92311742 146.50738345 157.02398112 119.61709986 156.17919922 92.02929688 C155.094563 73.69392063 147.61032213 56.74373458 137 42 C136.60868896 41.43869385 136.21737793 40.8773877 135.81420898 40.29907227 C133.77925229 37.57730252 132.48694603 36.13365829 129.16796875 35.22265625 C128.18441406 35.16980469 127.20085937 35.11695313 126.1875 35.0625 C119.70825526 34.27156877 116.09435126 32.05647035 112 27 C109.19172841 21.94511114 109.66049522 16.49718845 111 11 C112.87116245 6.98822772 115.14147915 4.57234723 118.8125 2.125 C125.05199361 -0.07717421 130.00439992 -0.81695752 136.109375 1.875 C139.62714705 3.96821973 142.05470429 6.38543028 144 10 C144.53125 12.5859375 144.53125 12.5859375 144.875 15.375 C145.65459002 21.0232061 147.73299068 23.38836324 151.6484375 27.375 C171.00406845 48.98128571 178.22522889 80.24504157 177.14355469 108.50244141 C175.4320718 138.2787508 162.22767367 164.55076167 142 186 C141.38769531 186.67675781 140.77539062 187.35351562 140.14453125 188.05078125 C125.52946138 203.600717 105.30575611 213.38421126 85 219 C83.79988281 219.3403125 82.59976563 219.680625 81.36328125 220.03125 C49.75419925 227.4123978 16.09246512 220.7691088 -11.30078125 203.9765625 C-39.44591697 185.30302335 -57.14764266 157.89131524 -64 125 C-69.7865909 93.63667731 -61.63681413 60.75934203 -43.76171875 34.7421875 C-36.47999516 24.66411239 -14.07323737 -4.56442599 0 0 Z " fill="#B1E200" transform="translate(157,76)"/>
<path d="M0 0 C0.64324219 0.70382813 1.28648437 1.40765625 1.94921875 2.1328125 C4.36375984 4.33119468 6.24588609 4.89102755 9.375 5.75 C14.41622316 7.47533841 17.10597819 9.36799769 19.97265625 13.86328125 C22.42383876 18.96136806 22.44596763 23.19580078 21 28.625 C19.21972252 33.38889067 16.25055676 36.29510024 12 39 C9 40 9 40 6.453125 39.60546875 C-6.14933791 37.96100103 -14.78094285 45.27146909 -24.83789062 51.9296875 C-30.15035133 55.40788907 -35.5808624 58.69155457 -41 62 C-43.18405797 63.34429816 -45.36765352 64.68934791 -47.55078125 66.03515625 C-62.31014906 75.11733157 -77.1211015 84.11497056 -92 93 C-89.09574601 100.36728837 -80.18830161 104.63651955 -73.375 107.875 C-60.0585061 113.43758606 -44.62347134 114.13138708 -31 109 C-20.82170899 104.34572374 -13.43813793 99.6692931 -7.25 90.375 C-1.50806767 82.37230686 6.64046308 77.98015708 15.05810547 73.13818359 C16.74160997 72.15144761 18.37636406 71.08242396 20 70 C20.99 70.33 21.98 70.66 23 71 C19.65751512 84.2912928 14.96102257 95.43257382 6 106 C5.22785156 106.97195312 4.45570313 107.94390625 3.66015625 108.9453125 C-7.73417542 122.57731842 -25.94601431 130.57618077 -43.40576172 132.22753906 C-65.02474464 133.57211887 -85.07781738 127.72625172 -101.54394531 113.34716797 C-115.73871407 100.25703308 -125.36032641 81.27994581 -126.23828125 61.85546875 C-126.76559798 39.92709682 -121.0080675 20.4505607 -106 4 C-105.48308594 3.3915625 -104.96617187 2.783125 -104.43359375 2.15625 C-92.9580994 -10.49843048 -74.5862019 -18.36716346 -57.78515625 -19.89453125 C-35.70435898 -20.73069047 -16.72311885 -14.72588362 0 0 Z M-93.8125 18.75 C-104.82651459 31.61610292 -108.02335157 46.36538172 -107.19042969 62.84228516 C-106.76014368 67.71775663 -105.5267935 72.36509116 -104 77 C-98.60627162 75.52052905 -94.4968763 72.96531685 -89.875 69.9375 C-81.74232347 64.70611456 -73.52341764 59.62981839 -65.25 54.625 C-64.04716893 53.89645515 -62.84436951 53.16785805 -61.64160156 52.43920898 C-58.66717157 50.63783794 -55.69191611 48.83783497 -52.71643066 47.03820801 C-44.46442905 42.04686502 -36.22144536 37.0415293 -28 32 C-26.85748779 31.30342285 -26.85748779 31.30342285 -25.69189453 30.59277344 C-23.68353995 29.36420788 -21.68404227 28.12264101 -19.6875 26.875 C-18.61886719 26.21242188 -17.55023438 25.54984375 -16.44921875 24.8671875 C-13.95568105 22.96621299 -12.84320675 21.99932602 -12 19 C-12.10137735 15.58518412 -12.63956018 14.35705858 -15.08203125 11.9375 C-41.00313316 -6.45572825 -71.48510374 -4.51081584 -93.8125 18.75 Z " fill="#B1E200" transform="translate(261,121)"/>
<path d="M0 0 C0 37.62 0 75.24 0 114 C-8.415 114.99 -8.415 114.99 -17 116 C-17 113.03 -17 110.06 -17 107 C-17.54527344 107.39832031 -18.09054687 107.79664063 -18.65234375 108.20703125 C-23.92023306 111.90806118 -28.78025911 114.35612371 -35 116 C-35.804375 116.226875 -36.60875 116.45375 -37.4375 116.6875 C-51.26731945 118.37406335 -63.61231997 114.84817066 -74.625 106.375 C-82.44637085 99.29938776 -87.76743551 88.92988776 -88.46875 78.38671875 C-88.50262707 76.82064423 -88.51256334 75.2538905 -88.5 73.6875 C-88.49500488 72.86080811 -88.49000977 72.03411621 -88.48486328 71.18237305 C-88.12914158 58.60822438 -82.26857469 48.8299098 -73.3125 40.3125 C-62.70008302 31.37680401 -50.34842357 29.8556755 -37 31 C-29.18099333 32.58796603 -24.61623126 35.27412053 -18 40 C-17.67 27.46 -17.34 14.92 -17 2 C-4 0 -4 0 0 0 Z M-65.81640625 59.1953125 C-70.05877105 65.66386873 -70.80495681 71.43993271 -70 79 C-68.4178298 85.77581587 -65.15583116 90.67299813 -59.4375 94.6875 C-53.57199032 98.13908484 -46.63435882 99.80609125 -39.875 98.5 C-32.34223335 96.05610446 -26.76944796 91.68788235 -22.875 84.83203125 C-19.95893766 78.72652573 -19.94283321 71.11419688 -21.61328125 64.61328125 C-24.58181784 57.95695911 -30.15479564 53.66417614 -36.3125 50.0625 C-47.7386421 46.77022177 -58.49007835 49.5237295 -65.81640625 59.1953125 Z " fill="#B1E200" transform="translate(579,128)"/>
<path d="M0 0 C3.40596523 3.27454535 6.18067832 6.45097521 8.5 10.5625 C7.12854859 13.86018155 5.85973939 15.28354724 2.7734375 17.05078125 C2.0004834 17.50243652 1.2275293 17.9540918 0.43115234 18.41943359 C-0.41237793 18.89977051 -1.2559082 19.38010742 -2.125 19.875 C-3.93882713 20.93392796 -5.75126603 21.99523643 -7.5625 23.05859375 C-8.52414062 23.62175293 -9.48578125 24.18491211 -10.4765625 24.76513672 C-16.75554083 28.49784331 -22.91818074 32.41935648 -29.10009766 36.30981445 C-35.18980293 40.13616721 -41.3167787 43.8890484 -47.5 47.5625 C-46.66287841 51.8282579 -45.13711691 53.11139947 -41.5 55.5625 C-34.16683814 60.02616374 -24.94342123 59.78151968 -16.7265625 57.94140625 C-9.68577028 55.37801102 -3.57532844 50.86324797 2.5 46.5625 C4.86300349 48.92550349 5.01433444 50.1423498 5.625 53.375 C5.79257812 54.22707031 5.96015625 55.07914062 6.1328125 55.95703125 C6.86119345 61.1254365 6.86119345 61.1254365 6.5 63.5625 C-3.25578618 72.63896645 -17.17159547 75.90852781 -30.0859375 75.77734375 C-41.50530938 75.05873339 -52.72506947 70.07192857 -60.5 61.5625 C-69.50123922 49.55462278 -72.21548265 38.38282128 -70.5 23.5625 C-67.55605095 11.04090336 -60.72592649 2.41768608 -50.26953125 -4.77734375 C-34.50600301 -14.22656731 -13.70285719 -11.89720983 0 0 Z M-49.6875 15.4375 C-53.1077034 21.33440242 -53.73019523 25.8868383 -53.5 32.5625 C-49.84986053 31.20510822 -46.64625558 29.55580588 -43.33203125 27.515625 C-41.86733398 26.6184375 -41.86733398 26.6184375 -40.37304688 25.703125 C-39.36306641 25.07921875 -38.35308594 24.4553125 -37.3125 23.8125 C-35.31919325 22.58824393 -33.32570509 21.36428317 -31.33203125 20.140625 C-30.36475098 19.54572266 -29.3974707 18.95082031 -28.40087891 18.33789062 C-24.11811852 15.71676341 -19.81172258 13.13563434 -15.5 10.5625 C-15.995 9.0775 -15.995 9.0775 -16.5 7.5625 C-28.74469966 1.65880552 -41.30395434 4.41912571 -49.6875 15.4375 Z " fill="#B1E200" transform="translate(478.5,168.4375)"/>
<path d="M0 0 C0.33 22.77 0.66 45.54 1 69 C4.63 64.71 8.26 60.42 12 56 C14.03871273 53.62228654 16.07868867 51.24611088 18.125 48.875 C22.60281029 43.68589185 26.9308749 38.4066121 31.16015625 33.01171875 C33 31 33 31 36 30 C39.13671875 31.21484375 39.13671875 31.21484375 42.6875 32.9375 C43.86699219 33.50339844 45.04648437 34.06929687 46.26171875 34.65234375 C47.16535156 35.09707031 48.06898438 35.54179687 49 36 C47.43767979 39.67956291 45.16415918 42.16515793 42.4375 45.0625 C38.16054307 49.68407505 34.13995386 54.43847071 30.18359375 59.33984375 C26.90659887 63.3320325 23.46764396 67.17330843 20 71 C21.28895717 73.81351786 22.66268505 75.9325707 24.79296875 78.171875 C25.33727539 78.74969727 25.88158203 79.32751953 26.44238281 79.92285156 C27.01827148 80.52581055 27.59416016 81.12876953 28.1875 81.75 C29.37452696 83.00963593 30.56073245 84.2700465 31.74609375 85.53125 C32.5966333 86.43423828 32.5966333 86.43423828 33.46435547 87.35546875 C35.81086438 89.86835969 38.06659135 92.45326228 40.3046875 95.0625 C41.63771625 96.58596143 43.00431707 98.08005245 44.3828125 99.5625 C45.20523438 100.449375 46.02765625 101.33625 46.875 102.25 C47.63554688 103.05953125 48.39609375 103.8690625 49.1796875 104.703125 C50.93541942 106.91851206 51.60769494 108.24120956 52 111 C50.11157486 111.87042243 48.21388098 112.72075474 46.3125 113.5625 C45.25675781 114.03816406 44.20101562 114.51382813 43.11328125 115.00390625 C39.68211452 116.1017074 38.31877655 116.34775356 35 115 C33.06707042 113.24864866 31.43574075 111.58725074 29.75 109.625 C29.27111328 109.08552734 28.79222656 108.54605469 28.29882812 107.99023438 C24.51930464 103.69874356 20.91894012 99.26471072 17.3359375 94.80859375 C14.25583769 91.10526304 11.00844 87.57394077 7.71679688 84.05859375 C5.28595831 81.45336121 3.14795562 78.86394083 1 76 C0.67 88.54 0.34 101.08 0 114 C-6 115 -6 115 -17 115 C-17 77.71 -17 40.42 -17 2 C-14.04714811 1.01571604 -11.58949019 0.69911006 -8.5 0.4375 C-7.5409375 0.35371094 -6.581875 0.26992187 -5.59375 0.18359375 C-3.73281868 0.0518712 -1.86558736 0 0 0 Z " fill="#B1E200" transform="translate(880,128)"/>
<path d="M0 0 C6.47397596 7.04381248 8.29374384 15.1739659 8.27368164 24.52294922 C8.27356834 26.29410599 8.27356834 26.29410599 8.27345276 28.1010437 C8.26829147 29.36062897 8.26313019 30.62021423 8.2578125 31.91796875 C8.25639755 33.21904572 8.2549826 34.52012268 8.25352478 35.86062622 C8.24972469 39.30307978 8.23991608 42.7454905 8.2288208 46.18792725 C8.2185525 49.70731019 8.21401559 53.22670012 8.20898438 56.74609375 C8.19829134 63.63934041 8.18124536 70.53255877 8.16015625 77.42578125 C6.72472676 77.75982978 5.28834013 78.08976718 3.8515625 78.41796875 C3.05177979 78.60214355 2.25199707 78.78631836 1.42797852 78.97607422 C-1.03815458 79.4651061 -3.33113627 79.58763335 -5.83984375 79.42578125 C-6.33484375 75.96078125 -6.33484375 75.96078125 -6.83984375 72.42578125 C-7.60167969 72.93238281 -7.60167969 72.93238281 -8.37890625 73.44921875 C-9.06726563 73.89523438 -9.755625 74.34125 -10.46484375 74.80078125 C-11.13773438 75.24164063 -11.810625 75.6825 -12.50390625 76.13671875 C-20.81588159 80.72359478 -31.03379882 80.75405096 -40.15234375 78.66796875 C-48.78771799 75.68782601 -53.64685513 71.49039805 -57.83984375 63.42578125 C-61.17411891 55.16948085 -60.9626097 45.64747155 -57.74609375 37.3828125 C-54.48053533 30.3308954 -49.35862587 24.69954761 -42.15234375 21.61328125 C-32.56199021 18.52736788 -23.25929674 18.98064024 -13.83984375 22.42578125 C-12.14773051 23.38209216 -10.47238987 24.37099646 -8.83984375 25.42578125 C-8.51761599 20.75347877 -8.40926689 18.28693498 -10.52734375 14.05078125 C-13.78281837 10.35537763 -16.40035554 9.58171213 -21.265625 9.0546875 C-31.65373645 8.87720218 -40.12684464 10.80923903 -49.83984375 14.42578125 C-49.38759614 8.51085853 -48.68158325 3.07378237 -46.83984375 -2.57421875 C-32.34108465 -6.47490013 -12.66528733 -10.83675328 0 0 Z M-40.65234375 40.42578125 C-43.88554326 44.85988344 -44.20666074 48.01523069 -43.83984375 53.42578125 C-42.09821562 58.10067781 -40.04857478 60.74749787 -35.83984375 63.42578125 C-29.34485855 66.10018692 -23.18041616 65.79570462 -16.5625 63.70703125 C-11.23223044 61.40419599 -9.02211155 58.79052293 -6.83984375 53.42578125 C-6.19637869 48.18613718 -6.95965382 44.84207248 -9.83984375 40.42578125 C-14.5893149 35.61142661 -18.46237112 34.26837603 -25.15234375 34.17578125 C-31.97725747 34.25152946 -36.07277785 35.23990662 -40.65234375 40.42578125 Z " fill="#B1E200" transform="translate(778.83984375,164.57421875)"/>
<path d="M0 0 C0.00879936 1.06329529 0.00879936 1.06329529 0.01777649 2.14807129 C0.07588548 8.85635261 0.14806498 15.56432158 0.23571491 22.27228546 C0.28028042 25.72023645 0.31956587 29.16807304 0.34643555 32.61621094 C0.37762537 36.58814233 0.43240877 40.55958622 0.48828125 44.53125 C0.49467117 45.75863892 0.5010611 46.98602783 0.50764465 48.25061035 C0.59823857 59.01015744 0.59823857 59.01015744 6 67.9375 C10.88616516 70.53327524 15.88887671 70.88326647 21.16015625 69.38671875 C26.02199992 67.32384303 28.18280244 64.89260257 30.30859375 60.09765625 C31.67130219 55.96333744 32.13141414 51.99839807 32.20532227 47.65893555 C32.22526749 46.6182341 32.24521271 45.57753265 32.26576233 44.5052948 C32.28247482 43.3936647 32.29918732 42.28203461 32.31640625 41.13671875 C32.33718735 39.98959915 32.35796844 38.84247955 32.37937927 37.66059875 C32.44466619 34.00295902 32.50366286 30.34524862 32.5625 26.6875 C32.60570504 24.20507087 32.64931997 21.72264884 32.69335938 19.24023438 C32.80032626 13.16022833 32.90165252 7.08015133 33 1 C40.92 0.505 40.92 0.505 49 0 C49 27.39 49 54.78 49 83 C44.88741141 83.68543143 41.67737862 84.11726187 37.625 84.0625 C36.75101563 84.05347656 35.87703125 84.04445313 34.9765625 84.03515625 C34.32429687 84.02355469 33.67203125 84.01195312 33 84 C32.505 80.04 32.505 80.04 32 76 C31.59910156 76.39832031 31.19820312 76.79664063 30.78515625 77.20703125 C23.92072464 83.60449472 17.04000268 85.60335205 7.703125 85.27734375 C0.57631523 84.54612483 -4.61137625 82.4357118 -9.49609375 77.09765625 C-14.38705553 70.27571735 -16.13121595 62.27784963 -16.11352539 54.01635742 C-16.11344986 52.83551071 -16.11337433 51.654664 -16.11329651 50.43803406 C-16.10813522 49.17328751 -16.10297394 47.90854095 -16.09765625 46.60546875 C-16.0962413 45.30297684 -16.09482635 44.00048492 -16.09336853 42.65852356 C-16.08956355 39.20783546 -16.07975064 35.75718992 -16.06866455 32.30651855 C-16.05840689 28.78052343 -16.0538616 25.25452139 -16.04882812 21.72851562 C-16.03812644 14.81899301 -16.02107443 7.90949855 -16 1 C-10.62915894 0.31798844 -5.41499441 -0.11521265 0 0 Z " fill="#B1E200" transform="translate(609,159)"/>
<path d="M0 0 C1.59375 2.05078125 1.59375 2.05078125 1.56640625 4.03515625 C0.3712564 6.51185232 -1.11145826 8.2746448 -2.96875 10.30078125 C-3.60941406 11.0071875 -4.25007812 11.71359375 -4.91015625 12.44140625 C-5.40386719 12.9725 -5.89757812 13.50359375 -6.40625 14.05078125 C-8.93454612 12.83304899 -11.12398465 11.56740894 -13.46875 9.98828125 C-18.01257962 6.99128724 -22.05917382 6.48683181 -27.40625 7.05078125 C-31.08449713 8.49009534 -32.10170364 9.42844738 -33.84375 12.98828125 C-34.47616713 16.43144117 -34.23473867 17.19232111 -32.40625 20.05078125 C-28.07035822 22.68632331 -23.77620433 24.28853539 -18.93774414 25.80566406 C-10.03818798 28.6085001 -2.22470335 31.22537726 2.65625 39.67578125 C5.66918172 46.59822645 5.74424974 54.08528872 3.59375 61.30078125 C0.55818538 68.0464804 -4.83347291 72.74798024 -11.59375 75.55078125 C-21.03512573 78.49303823 -31.3682475 78.19126786 -40.40625 74.05078125 C-45.28198284 71.11013128 -49.10564894 67.72663275 -52.40625 63.05078125 C-44.32180307 54.33728513 -44.32180307 54.33728513 -40.40625 54.05078125 C-37.49498281 55.7772304 -34.99573385 57.88430359 -32.40625 60.05078125 C-28.23544693 62.13618278 -22.94896136 61.50505239 -18.40625 61.05078125 C-15.33259214 59.24274721 -13.97605268 58.19038661 -12.40625 55.05078125 C-11.82182037 52.17840392 -11.82182037 52.17840392 -12.40625 49.05078125 C-17.70455448 43.5893199 -23.75641954 41.98701164 -30.88671875 39.82226562 C-38.19165754 37.4667277 -44.65245919 34.17853591 -48.90625 27.55078125 C-51.67114159 21.13228292 -51.53072929 13.25593457 -49.74609375 6.58203125 C-46.9184536 0.21678071 -41.92823801 -3.66610205 -35.84375 -6.76171875 C-23.05209966 -11.1806525 -10.50309772 -8.50819117 0 0 Z " fill="#B1E200" transform="translate(847.40625,166.94921875)"/>
<path d="M0 0 C0 7.92 0 15.84 0 24 C7.26 24 14.52 24 22 24 C22 28.95 22 33.9 22 39 C14.74 39 7.48 39 0 39 C0.09749979 44.22906752 0.20057488 49.45744389 0.31738281 54.68603516 C0.35540924 56.46070914 0.39030545 58.23545332 0.421875 60.01025391 C-0.33105116 75.13246681 -0.33105116 75.13246681 4.39208984 88.66943359 C9.06594569 92.53710963 14.20717196 92.06147765 19.9375 91.625 C22.9384375 91.315625 22.9384375 91.315625 26 91 C24.68 96.28 23.36 101.56 22 107 C10.82464334 108.18886773 1.47714501 108.6340015 -8 102 C-14.32361432 95.67638568 -16.02083542 86.95783746 -16.11352539 78.27978516 C-16.11336838 76.44953663 -16.10779743 74.61928293 -16.09765625 72.7890625 C-16.0962413 71.82092621 -16.09482635 70.85278992 -16.09336853 69.85531616 C-16.08779365 66.77851201 -16.07524577 63.70178197 -16.0625 60.625 C-16.05748175 58.53255314 -16.05291941 56.44010513 -16.04882812 54.34765625 C-16.03783245 49.2317425 -16.02058515 44.11588379 -16 39 C-19.96 39 -23.92 39 -28 39 C-26 28.28571429 -26 28.28571429 -24 24 C-21.36 24 -18.72 24 -16 24 C-16 17.4 -16 10.8 -16 4 C-13.73125 3.34 -11.4625 2.68 -9.125 2 C-8.41230957 1.79117188 -7.69961914 1.58234375 -6.96533203 1.3671875 C-2.22222222 0 -2.22222222 0 0 0 Z " fill="#B1E200" transform="translate(692,136)"/>
<path d="M0 0 C4.08421669 3.40351391 7.16589022 7.94724791 7.80859375 13.2890625 C8.00636933 19.17028366 7.0106912 23.47517828 3.5703125 28.30859375 C0.17077181 31.88992806 -3.76251914 34.9184977 -8.7265625 35.64453125 C-15.59296757 35.75386891 -20.77990628 34.61475689 -25.96484375 29.91796875 C-29.78278287 25.68818197 -31.12171518 21.59638815 -31.8671875 16.05859375 C-31.17165191 10.09686016 -29.07642998 4.60942533 -24.45703125 0.59375 C-16.59507282 -4.47611105 -8.11718904 -5.15347118 0 0 Z " fill="#B1E200" transform="translate(545.4296875,185.69140625)"/>
</svg>
